<svg width="18" height="12" viewBox="0 0 18 12" fill="none" xmlns="http://www.w3.org/2000/svg">
<path fill-rule="evenodd" clip-rule="evenodd" d="M16.6667 0.666626H15.6667C15.1144 0.666626 14.6667 1.11434 14.6667 1.66663V10.3333C14.6667 10.8856 15.1144 11.3333 15.6667 11.3333H16.6667C17.2189 11.3333 17.6667 10.8856 17.6667 10.3333V1.66663C17.6667 1.11434 17.2189 0.666626 16.6667 0.666626ZM11 2.99996H12C12.5523 2.99996 13 3.44767 13 3.99996V10.3333C13 10.8856 12.5523 11.3333 12 11.3333H11C10.4477 11.3333 9.99999 10.8856 9.99999 10.3333V3.99996C9.99999 3.44767 10.4477 2.99996 11 2.99996ZM7.33332 5.33329H6.33332C5.78104 5.33329 5.33332 5.78101 5.33332 6.33329V10.3333C5.33332 10.8856 5.78104 11.3333 6.33332 11.3333H7.33332C7.88561 11.3333 8.33332 10.8856 8.33332 10.3333V6.33329C8.33332 5.78101 7.88561 5.33329 7.33332 5.33329ZM2.66666 7.33329H1.66666C1.11437 7.33329 0.666656 7.78101 0.666656 8.33329V10.3333C0.666656 10.8856 1.11437 11.3333 1.66666 11.3333H2.66666C3.21894 11.3333 3.66666 10.8856 3.66666 10.3333V8.33329C3.66666 7.78101 3.21894 7.33329 2.66666 7.33329Z" fill="black"/>
</svg>
